# Exported from Wings 3D 0.98.29b
mtllib box1.mtl
o cube1
#8 vertices, 6 faces
v -0.50000000 -0.50000000 0.50000000
v -0.50000000 0.50000000 0.50000000
v 0.50000000 0.50000000 0.50000000
v 0.50000000 -0.50000000 0.50000000
v -0.50000000 -0.50000000 -0.50000000
v -0.50000000 0.50000000 -0.50000000
v 0.50000000 0.50000000 -0.50000000
v 0.50000000 -0.50000000 -0.50000000
vt 1.5311111e-2 0.48093333
vt 6.6712980e-2 0.76130717
vt 0.21624569 0.98093333
vt 0.21970000 0.19183219
vt 0.26764756 0.69121371
vt 0.30035784 0.48093333
vt 0.32717664 0.43482285
vt 0.43587186 0.83140062
vt 0.46269065 8.4355556e-2
vt 0.49540093 0.29463593
vt 0.54334849 0.58840997
vt 0.54680280 0.58435556
vt 0.69633551 0.36472939
vt 0.74773738 8.4355556e-2
vn -0.57735027 -0.57735027 0.57735027
vn -0.57735027 0.57735027 0.57735027
vn 0.57735027 0.57735027 0.57735027
vn 0.57735027 -0.57735027 0.57735027
vn -0.57735027 -0.57735027 -0.57735027
vn -0.57735027 0.57735027 -0.57735027
vn 0.57735027 0.57735027 -0.57735027
vn 0.57735027 -0.57735027 -0.57735027
g cube1_cube1_auv
usemtl cube1_auv
f 1/3/1 4/2/4 3/5/3 2/8/2
f 1/9/1 5/10/5 8/7/8 4/4/4
f 2/14/2 6/13/6 5/10/5 1/9/1
f 3/5/3 7/6/7 6/11/6 2/8/2
f 4/2/4 8/1/8 7/6/7 3/5/3
f 6/13/6 7/12/7 8/7/8 5/10/5
