# resource file
# 3 1

# Exported from Wings 3D 0.98.29b
mtllib sphere1.mtl
o icosahedron1
#62 vertices, 60 faces
v -2.69137866 -6.9421857e-17 4.35474536
v 2.69137866 -6.9421857e-17 4.35474536
v -2.69137866 -1.3682558e-17 -4.35474536
v 2.69137866 -1.3682558e-17 -4.35474536
v 8.4492524e-18 4.35474536 2.69137866
v 8.4492524e-18 4.35474536 -2.69137866
v 8.4492524e-18 -4.35474536 2.69137866
v 8.4492524e-18 -4.35474536 -2.69137866
v 4.35474536 2.69137866 2.5426592e-17
v -4.35474536 2.69137866 -3.0312707e-17
v 4.35474536 -2.69137866 -3.0312707e-17
v -4.35474536 -2.69137866 2.5426592e-17
v -1.9420397e-17 -4.1552207e-17 4.99856393
v -1.54464012 2.49928196 4.04392208
v -1.54464012 -2.49928196 4.04392208
v -4.04392208 1.54464012 2.49928196
v -4.04392208 -1.54464012 2.49928196
v 1.54464012 2.49928196 4.04392208
v 1.54464012 -2.49928196 4.04392208
v 4.04392208 1.54464012 2.49928196
v 4.04392208 -1.54464012 2.49928196
v -1.9420397e-17 -4.1552207e-17 -4.99856393
v -1.54464012 2.49928196 -4.04392208
v -1.54464012 -2.49928196 -4.04392208
v -4.04392208 1.54464012 -2.49928196
v -4.04392208 -1.54464012 -2.49928196
v 1.54464012 2.49928196 -4.04392208
v 1.54464012 -2.49928196 -4.04392208
v 4.04392208 1.54464012 -2.49928196
v 4.04392208 -1.54464012 -2.49928196
v -1.9420397e-17 4.99856393 -2.4430573e-18
v 2.49928196 4.04392208 1.54464012
v -2.49928196 4.04392208 1.54464012
v 2.49928196 4.04392208 -1.54464012
v -2.49928196 4.04392208 -1.54464012
v -1.9420397e-17 -4.99856393 -2.4430573e-18
v 2.49928196 -4.04392208 1.54464012
v -2.49928196 -4.04392208 1.54464012
v 2.49928196 -4.04392208 -1.54464012
v -2.49928196 -4.04392208 -1.54464012
v 4.99856393 -4.1552207e-17 -2.4430573e-18
v -4.99856393 -4.1552207e-17 -2.4430573e-18
v -1.9420397e-17 1.77947110 4.65871455
v -2.87924345 2.87924345 2.87924345
v -1.77947110 4.65871455 -2.4430573e-18
v 1.77947110 4.65871455 -2.4430573e-18
v 2.87924345 2.87924345 2.87924345
v 4.65871455 -4.1552207e-17 1.77947110
v 4.65871455 -4.1552207e-17 -1.77947110
v 2.87924345 2.87924345 -2.87924345
v -1.9420397e-17 1.77947110 -4.65871455
v -1.9420397e-17 -1.77947110 -4.65871455
v 2.87924345 -2.87924345 -2.87924345
v 1.77947110 -4.65871455 -2.4430573e-18
v -1.77947110 -4.65871455 -2.4430573e-18
v -2.87924345 -2.87924345 2.87924345
v -1.9420397e-17 -1.77947110 4.65871455
v 2.87924345 -2.87924345 2.87924345
v -4.65871455 -4.1552207e-17 1.77947110
v -4.65871455 -4.1552207e-17 -1.77947110
v -2.87924345 2.87924345 -2.87924345
v -2.87924345 -2.87924345 -2.87924345
vt 3.0333306e-2 0.46806441
vt 3.0333361e-2 0.13473124
vt 5.4593344e-2 0.51486934
vt 5.4593397e-2 6.7655817e-2
vt 5.4593406e-2 0.40098904
vt 5.4593460e-2 0.18153612
vt 0.10055225 0.55871681
vt 0.10055233 0.34644153
vt 0.10055236 1.3108267e-2
vt 0.10055244 0.22538355
vt 0.10796555 0.43180355
vt 0.10796556 9.8470221e-2
vt 0.11554577 0.62044213
vt 0.11554604 0.28710890
vt 0.14394998 0.66485442
vt 0.14395021 0.33152118
vt 0.15321653 0.52831110
vt 0.15321658 0.34404897
vt 0.15321662 1.0715649e-2
vt 0.15321668 0.19497777
vt 0.21416896 0.61575341
vt 0.21416899 0.67738230
vt 0.21416906 0.49312016
vt 0.21416909 0.36192686
vt 0.21416910 8.9404988e-2
vt 0.21416911 0.42273831
vt 0.21416911 2.8593537e-2
vt 0.21416914 0.15978684
vt 0.21416921 0.34404897
vt 0.21416924 0.28242009
vt 0.27512153 0.52831110
vt 0.27512158 0.34404897
vt 0.27512162 1.0715649e-2
vt 0.27512168 0.19497777
vt 0.28438800 0.66485451
vt 0.28438823 0.33152110
vt 0.31279217 0.62044223
vt 0.31279244 0.28710880
vt 0.32037265 0.43180354
vt 0.32037266 9.8470225e-2
vt 0.32778576 0.55871687
vt 0.32778585 0.34644159
vt 0.32778587 1.3108204e-2
vt 0.32778596 0.22538348
vt 0.37374475 0.51486944
vt 0.37374480 6.7655718e-2
vt 0.37374481 0.40098914
vt 0.37374486 0.18153602
vt 0.39800484 0.46806456
vt 0.39800490 0.13473124
vt 0.39800490 0.13473109
vt 0.39982223 0.46715325
vt 0.42226494 6.7655817e-2
vt 0.42226500 0.18153612
vt 0.42408227 0.51395817
vt 0.42408235 0.40007791
vt 0.46822389 1.3108267e-2
vt 0.46822398 0.22538355
vt 0.47004122 0.55780567
vt 0.47004134 0.34553041
vt 0.47563709 9.8470221e-2
vt 0.47745446 0.43089240
vt 0.48321758 0.28710890
vt 0.48503477 0.61953100
vt 0.51162175 0.33152118
vt 0.51343892 0.66394329
vt 0.52088816 1.0715649e-2
vt 0.52088822 0.19497777
vt 0.52270551 0.52739999
vt 0.52270558 0.34313784
vt 0.58184064 8.9404988e-2
vt 0.58184065 2.8593537e-2
vt 0.58184068 0.15978684
vt 0.58184075 0.34404897
vt 0.58184078 0.28242009
vt 0.58365793 0.67647120
vt 0.58365801 0.49220905
vt 0.58365801 0.42182716
vt 0.58365801 0.61484234
vt 0.58365806 0.36101572
vt 0.64279316 1.0715649e-2
vt 0.64279322 0.19497777
vt 0.64461051 0.52739999
vt 0.64461059 0.34313784
vt 0.65205977 0.33152110
vt 0.65387694 0.66394340
vt 0.68046398 0.28710880
vt 0.68228117 0.61953113
vt 0.68804420 9.8470225e-2
vt 0.68986156 0.43089240
vt 0.69545741 1.3108204e-2
vt 0.69545750 0.22538348
vt 0.69727474 0.55780576
vt 0.69727486 0.34553049
vt 0.74141634 6.7655718e-2
vt 0.74141640 0.18153602
vt 0.74323367 0.51395830
vt 0.74323375 0.40007804
vt 0.76567644 0.13473109
vt 0.76749377 0.46715345
vn -0.52573109 2.3769126e-17 0.85065082
vn 0.52573109 -1.1884563e-17 0.85065082
vn -0.52573109 -2.3769126e-17 -0.85065082
vn 0.52573109 1.1884563e-17 -0.85065082
vn -1.1884563e-17 0.85065082 0.52573109
vn 1.1884563e-17 0.85065082 -0.52573109
vn 1.1884563e-17 -0.85065082 0.52573109
vn -1.1884563e-17 -0.85065082 -0.52573109
vn 0.85065082 0.52573109 -1.7826844e-17
vn -0.85065082 0.52573109 1.7826844e-17
vn 0.85065082 -0.52573109 1.1884563e-17
vn -0.85065082 -0.52573109 -1.1884563e-17
vn 0.0000000e+0 0.0000000e+0 1.00000000
vn -0.30901704 0.50000020 0.80901686
vn -0.30901704 -0.50000020 0.80901686
vn -0.80901686 0.30901704 0.50000020
vn -0.80901686 -0.30901704 0.50000020
vn 0.30901704 0.50000020 0.80901686
vn 0.30901704 -0.50000020 0.80901686
vn 0.80901686 0.30901704 0.50000020
vn 0.80901686 -0.30901704 0.50000020
vn 0.0000000e+0 0.0000000e+0 -1.00000000
vn -0.30901704 0.50000020 -0.80901686
vn -0.30901704 -0.50000020 -0.80901686
vn -0.80901686 0.30901704 -0.50000020
vn -0.80901686 -0.30901704 -0.50000020
vn 0.30901704 0.50000020 -0.80901686
vn 0.30901704 -0.50000020 -0.80901686
vn 0.80901686 0.30901704 -0.50000020
vn 0.80901686 -0.30901704 -0.50000020
vn 0.0000000e+0 1.00000000 0.0000000e+0
vn 0.50000020 0.80901686 0.30901704
vn -0.50000020 0.80901686 0.30901704
vn 0.50000020 0.80901686 -0.30901704
vn -0.50000020 0.80901686 -0.30901704
vn 0.0000000e+0 -1.00000000 0.0000000e+0
vn 0.50000020 -0.80901686 0.30901704
vn -0.50000020 -0.80901686 0.30901704
vn 0.50000020 -0.80901686 -0.30901704
vn -0.50000020 -0.80901686 -0.30901704
vn 1.00000000 0.0000000e+0 0.0000000e+0
vn -1.00000000 0.0000000e+0 0.0000000e+0
vn 0.0000000e+0 0.35682245 0.93417222
vn -0.57735027 0.57735027 0.57735027
vn -0.35682245 0.93417222 0.0000000e+0
vn 0.35682245 0.93417222 0.0000000e+0
vn 0.57735027 0.57735027 0.57735027
vn 0.93417222 0.0000000e+0 0.35682245
vn 0.93417222 0.0000000e+0 -0.35682245
vn 0.57735027 0.57735027 -0.57735027
vn 0.0000000e+0 0.35682245 -0.93417222
vn 0.0000000e+0 -0.35682245 -0.93417222
vn 0.57735027 -0.57735027 -0.57735027
vn 0.35682245 -0.93417222 0.0000000e+0
vn -0.35682245 -0.93417222 0.0000000e+0
vn -0.57735027 -0.57735027 0.57735027
vn 0.0000000e+0 -0.35682245 0.93417222
vn 0.57735027 -0.57735027 0.57735027
vn -0.93417222 0.0000000e+0 0.35682245
vn -0.93417222 0.0000000e+0 -0.35682245
vn -0.57735027 0.57735027 -0.57735027
vn -0.57735027 -0.57735027 -0.57735027
g icosahedron1_image
usemtl image
f 1/12/1 15/6/15 57/2/57 13/4/13
f 1/12/1 17/20/17 56/10/56 15/6/15
f 2/62/2 18/69/18 43/59/43 13/55/13
f 2/62/2 20/78/20 47/77/47 18/69/18
f 2/62/2 21/70/21 48/80/48 20/78/20
f 3/11/3 23/26/23 51/23/51 22/17/22
f 3/11/3 25/18/25 61/24/61 23/26/23
f 3/11/3 26/5/26 60/8/60 25/18/25
f 4/21/4 28/13/28 52/7/52 22/17/22
f 4/21/4 30/22/30 53/15/53 28/13/28
f 5/79/5 32/83/32 46/93/46 31/88/31
f 5/79/5 33/76/33 44/66/44 14/64/14
f 6/39/6 27/31/27 51/23/51 23/26/23
f 6/39/6 34/45/34 50/41/50 27/31/27
f 6/39/6 35/32/35 45/42/45 31/47/31
f 7/89/7 19/81/19 57/91/57 15/95/15
f 7/89/7 37/71/37 58/72/58 19/81/19
f 7/89/7 38/96/38 55/92/55 36/82/36
f 8/75/8 39/68/39 54/73/54 36/82/36
f 8/75/8 40/87/40 62/85/62 24/74/24
f 9/90/9 32/83/32 47/77/47 20/78/20
f 9/90/9 34/97/34 46/93/46 32/83/32
f 9/90/9 41/84/41 49/94/49 29/98/29
f 10/40/10 35/46/35 61/51/61 25/48/25
f 10/40/10 42/34/42 59/28/59 16/25/16
f 11/61/11 39/68/39 53/58/53 30/54/30
f 11/61/11 41/53/41 48/57/48 21/67/21
f 12/30/12 38/14/38 56/10/56 17/20/17
f 12/30/12 40/29/40 55/16/55 38/14/38
f 12/30/12 42/34/42 60/44/60 26/38/26
f 13/4/13 43/9/43 14/19/14 1/12/1
f 13/55/13 57/52/57 19/56/19 2/62/2
f 14/64/14 43/59/43 18/69/18 5/79/5
f 14/19/14 44/27/44 16/25/16 1/12/1
f 15/95/15 56/99/56 38/96/38 7/89/7
f 16/25/16 44/27/44 33/33/33 10/40/10
f 16/25/16 59/28/59 17/20/17 1/12/1
f 17/20/17 59/28/59 42/34/42 12/30/12
f 18/69/18 47/77/47 32/83/32 5/79/5
f 19/56/19 58/60/58 21/70/21 2/62/2
f 20/78/20 48/80/48 41/84/41 9/90/9
f 21/67/21 58/72/58 37/71/37 11/61/11
f 22/17/22 51/23/51 27/31/27 4/21/4
f 22/17/22 52/7/52 24/3/24 3/11/3
f 23/26/23 61/24/61 35/32/35 6/39/6
f 24/74/24 52/65/52 28/63/28 8/75/8
f 24/3/24 62/1/62 26/5/26 3/11/3
f 25/48/25 60/44/60 42/34/42 10/40/10
f 26/38/26 62/36/62 40/29/40 12/30/12
f 27/31/27 50/41/50 29/37/29 4/21/4
f 28/63/28 53/58/53 39/68/39 8/75/8
f 29/37/29 49/35/49 30/22/30 4/21/4
f 29/98/29 50/100/50 34/97/34 9/90/9
f 30/54/30 49/50/49 41/53/41 11/61/11
f 31/88/31 45/86/45 33/76/33 5/79/5
f 31/47/31 46/49/46 34/45/34 6/39/6
f 33/33/33 45/43/45 35/46/35 10/40/10
f 36/82/36 54/73/54 37/71/37 7/89/7
f 36/82/36 55/92/55 40/87/40 8/75/8
f 37/71/37 54/73/54 39/68/39 11/61/11
