# Exported from Wings 3D 0.98.36
mtllib tree3.mtl
o tetrahedron1
#16 vertices, 28 faces
v 0.14476633 -36.62113854 2.00143052
v -1.66995653 -36.62114318 -0.70431745
v 1.76064216 -36.64838116 -1.07432983
v 0.14476633 7.12106538 1.18345621
v -1.96240571 7.12106169 -0.55453766
v 1.43152187 7.14829968 -0.87292200
v 0.29018782 10.11755583 9.77253325
v -8.84073797 10.27370141 -4.87472366
v 8.74403236 10.11752477 -4.86995204
v -6.65600934 21.36236846 -3.66679916
v -6.2103605e-3 21.36238114 7.49034622
v 6.43575106 21.36236846 -3.57017954
v -5.12540948 29.47005270 -3.23475403
v -5.0221972e-2 29.94449879 4.80649160
v 5.18009656 29.34286846 -2.58214753
v 0.16575592 44.90349203 9.9994773e-3
vt 0.22230000 0.57113505
vt 0.27155439 0.99275562
vt 0.28814544 0.51075562
vt 0.32853177 9.2210525e-2
vt 0.34687047 9.4207967e-2
vt 0.36057690 9.3041570e-2
vt 0.36370842 0.56843081
vt 0.36658070 0.56177000
vt 0.36925460 0.29862652
vt 0.38391403 0.99060690
vt 0.38600310 0.98395463
vt 0.39730228 0.30010206
vt 0.40051086 0.29335020
vt 0.41926567 0.48882559
vt 0.41942853 0.46531709
vt 0.42353112 0.48179283
vt 0.49082834 2.5871067e-2
vt 0.49844939 0.98365216
vt 0.50809817 0.56138933
vt 0.51990018 0.21301052
vt 0.52042032 0.22991620
vt 0.52468201 2.2777495e-2
vt 0.52568445 3.5229726e-2
vt 0.53571185 2.5965829e-2
vt 0.54204262 0.55252191
vt 0.55657842 0.97475222
vt 0.55673472 0.23752659
vt 0.56913262 3.7112123e-2
vt 0.57013970 2.2757232e-2
vt 0.62137494 0.47572529
vt 0.63896813 0.49245299
vt 0.64274670 0.47774473
vt 0.65554783 0.29922728
vt 0.66902648 0.97475222
vt 0.68356231 0.55252191
vt 0.68399300 0.30563106
vt 0.69158080 0.29997375
vt 0.70667239 9.3008888e-2
vt 0.73794004 9.0505061e-2
vt 0.74113951 0.11291787
vn 3.3361181e-2 -0.69030313 0.72275073
vn -0.83307085 -0.52351821 0.17866631
vn 0.73828624 -0.47484189 -0.47901837
vn 0.13738794 -0.50336831 0.85307966
vn -0.42321425 -0.79158610 -0.44077334
vn 0.55801755 -0.80829652 -0.18781145
vn 3.5023833e-2 -0.66293798 0.74785464
vn -0.67854014 -0.65057848 -0.34107318
vn 0.37606769 -0.59372944 -0.71137785
vn -0.94331714 0.20991134 -0.25707976
vn 2.6590214e-3 0.24952546 0.96836459
vn 0.94583544 0.20766186 -0.24954332
vn -0.60261700 0.26469958 -0.75285250
vn -1.4101756e-2 0.25783940 0.96608487
vn 0.86985582 0.26848357 -0.41384468
vn 7.1299654e-2 0.98107371 0.18002984
g tetrahedron1
usemtl tetrahedron1_auv
f 1/7/1 4/10/4 2/1/2
f 2/1/2 3/3/3 1/7/1
f 2/1/2 4/10/4 5/2/5
f 2/35/2 5/34/5 3/25/3
f 3/19/3 4/11/4 1/8/1
f 3/25/3 5/34/5 6/26/6
f 4/29/4 7/39/7 5/22/5
f 5/22/5 7/39/7 8/5/8
f 5/28/5 9/6/9 6/23/6
f 6/18/6 4/11/4 3/19/3
f 6/24/6 7/4/7 4/17/4
f 7/39/7 10/12/10 8/5/8
f 8/40/8 9/6/9 5/28/5
f 8/40/8 10/36/10 9/6/9
f 9/38/9 7/4/7 6/24/6
f 10/12/10 7/39/7 11/37/11
f 10/36/10 13/32/13 12/13/12
f 11/9/11 7/4/7 12/33/12
f 11/37/11 14/31/14 10/12/10
f 12/33/12 7/4/7 9/38/9
f 12/13/12 9/6/9 10/36/10
f 12/33/12 14/14/14 11/9/11
f 13/16/13 10/12/10 14/31/14
f 13/32/13 16/20/16 15/15/15
f 14/14/14 12/33/12 15/30/15
f 14/31/14 16/27/16 13/16/13
f 15/15/15 12/13/12 13/32/13
f 15/30/15 16/21/16 14/14/14
