# resource file
# 3 11

# Exported from Wings 3D 0.98.36
mtllib tree2.mtl
o tetrahedron1
#30 vertices, 52 faces
v -3.02596847 -24.50290964 0.73106992
v -4.20620450 -24.50291398 -1.31315844
v -1.84573243 -24.50291398 -1.31315844
v -3.02596847 7.21584594 0.45111600
v -3.96375485 7.21584249 -1.17317733
v -2.08818208 7.21584249 -1.17317733
v -2.98553183 10.03831711 4.34831428
v -7.65661081 10.11819601 -3.14473685
v 1.33917483 10.03830122 -3.14229585
v -9.38183358 17.66526059 -4.08183294
v -3.16706818 17.66527245 6.34540574
v 2.85345651 17.66526059 -3.99153423
v -7.95136642 24.37271696 -3.67805244
v -3.01598876 24.32178991 5.46872252
v 1.67994763 24.25385318 -3.06813982
v -3.00635202 27.45593787 -0.64557253
v 8.63224611 4.61563944 -1.45373350
v -0.56040181 4.21270730 2.78009740
v 3.90429292 10.45748981 0.67704682
v 3.90429292 -25.00779613 0.67704682
v 6.09315870 4.67307795 5.30445788
v 1.77351259 4.61563944 -4.05090637
v 7.81206400 8.50507944 -1.14986858
v 2.09845659 8.50507944 -3.32989351
v 0.22463714 8.67774898 2.47569347
v 4.83441651 8.69103125 4.41518819
v 5.08628121 0.72619944 0.14435174
v 4.45150936 0.74055907 1.83389959
v 2.78811923 0.62546641 1.20280947
v 3.37159783 0.72619944 -0.50494147
vt 0.10163118 0.26204100
vt 0.14513565 0.42483908
vt 0.22230000 0.57113505
vt 0.22580137 0.45222411
vt 0.24895958 0.33039653
vt 0.26184537 0.33748804
vt 0.26608143 0.33474865
vt 0.27012414 0.63638002
vt 0.27155439 0.99275562
vt 0.27633647 0.45649307
vt 0.28814544 0.51075562
vt 0.29337970 0.13125780
vt 0.30479988 0.45736936
vt 0.31901179 0.42531299
vt 0.33404032 0.59278562
vt 0.33437179 0.64057295
vt 0.34517609 0.13593145
vt 0.35726044 0.48973846
vt 0.35762734 0.13545073
vt 0.35815100 0.13499773
vt 0.35862176 0.27881273
vt 0.36370842 0.56843081
vt 0.36658070 0.56177000
vt 0.38391403 0.99060690
vt 0.38600310 0.98395463
vt 0.39200250 0.50800571
vt 0.39381392 0.13178755
vt 0.40118962 0.64005843
vt 0.42444518 0.13493621
vt 0.45528322 0.51093882
vt 0.46550321 0.27607600
vt 0.47510642 1.1675726e-2
vt 0.49844939 0.98365216
vt 0.50809817 0.56138933
vt 0.51000375 0.50951212
vt 0.51067227 0.41788426
vt 0.54107964 1.0963743e-2
vt 0.54204262 0.55252191
vt 0.55443368 0.50819372
vt 0.55657842 0.97475222
vt 0.56778575 9.5179101e-3
vt 0.58072404 0.41856290
vt 0.62263344 0.50991508
vt 0.62589310 0.27675464
vt 0.64369557 0.63937980
vt 0.65950598 0.12951032
vt 0.66695113 0.13425758
vt 0.66806218 0.50605492
vt 0.66902648 0.97475222
vt 0.68356231 0.55252191
vt 0.70637420 0.13084869
vt 0.70995233 0.63938327
vt 0.71084488 0.59210699
vt 0.72198179 0.13221038
vt 0.73053025 0.27608989
vt 0.73108974 0.41789592
vt 0.73320789 0.13426105
vt 0.73413587 0.48905983
vt 0.74176399 0.45282130
vt 0.77476105 0.63570139
vt 0.78835402 0.33101998
vt 0.79801661 0.13057917
vt 0.79868655 0.32565839
vt 0.81904705 0.45037807
vt 0.82721540 0.44695457
vt 0.83005171 0.32961213
vt 0.94626066 0.42416045
vt 0.98976512 0.26136237
vn 0.0000000e+0 -0.70396821 0.71023148
vn -0.86888484 -0.49501428 1.1340969e-6
vn 0.77732040 -0.44086833 -0.44878515
vn 0.18847960 -0.45580925 0.86989273
vn -0.57481049 -0.57449682 -0.58270602
vn 0.73373753 -0.53046332 -0.42454434
vn -0.16657216 -0.55547025 0.81468185
vn -0.68078802 -0.62287491 -0.38542770
vn 0.54444874 -0.63050550 -0.55320736
vn -0.95955919 -6.0244797e-2 -0.27498495
vn 8.5521039e-3 -6.4258012e-2 0.99789667
vn 0.96226695 1.3742120e-3 -0.27210371
vn -0.47405025 0.58393592 -0.65901078
vn 5.0542531e-3 0.54770514 0.83665616
vn 0.66967918 0.64209322 -0.37315693
vn 2.9863678e-2 0.99916427 -2.7909093e-2
vn 0.80289623 -0.47362800 -0.36198642
vn -0.78990032 -0.48592848 0.37407351
vn 5.6489438e-3 0.99995114 8.1117589e-3
vn -5.7350015e-2 -0.97984542 0.19134767
vn 0.37802246 -0.10549804 0.91976583
vn -0.41850328 -0.14974132 -0.89578599
vn 0.74959584 0.58404184 -0.31145016
vn -0.31086680 0.68102720 -0.66299607
vn -0.78061921 0.51703956 0.35114634
vn 0.25261576 0.69313076 0.67509631
vn 0.82301244 -0.43043055 -0.37064817
vn 0.35877954 -0.53289350 0.76635615
vn -0.81514474 -0.43277598 0.38502469
vn -0.34772895 -0.54114562 -0.76566703
g tetrahedron1
usemtl octahedron3_auv
f 17/31/17 22/55/22 23/36/23
f 17/44/17 28/19/28 27/29/27
f 17/31/17 30/57/30 22/55/22
f 18/1/18 21/21/21 25/2/25
f 18/1/18 28/19/28 21/21/21
f 18/68/18 30/57/30 29/62/29
f 19/58/19 23/36/23 24/56/24
f 19/18/19 25/2/25 26/14/26
f 20/15/20 27/28/27 28/16/28
f 20/53/20 29/60/29 30/52/30
f 21/21/21 23/42/23 26/14/26
f 21/21/21 28/19/28 17/44/17
f 22/55/22 25/67/25 24/56/24
f 22/55/22 30/57/30 18/68/18
f 23/42/23 21/21/21 17/44/17
f 24/56/24 23/36/23 22/55/22
f 24/56/24 25/67/25 19/58/19
f 25/67/25 22/55/22 18/68/18
f 26/14/26 23/42/23 19/18/19
f 26/14/26 25/2/25 21/21/21
f 27/47/27 30/57/30 17/31/17
f 28/16/28 29/8/29 20/15/20
f 29/12/29 28/19/28 18/1/18
f 30/52/30 27/45/27 20/53/20
usemtl tetrahedron1_auv
f 1/22/1 4/24/4 2/3/2
f 2/3/2 3/11/3 1/22/1
f 2/3/2 4/24/4 5/9/5
f 2/50/2 5/49/5 3/38/3
f 3/34/3 4/25/4 1/23/1
f 3/38/3 5/49/5 6/40/6
f 4/30/4 7/10/7 5/43/5
f 4/39/4 9/4/9 7/59/7
f 5/43/5 7/10/7 8/64/8
f 5/35/5 9/65/9 6/48/6
f 6/33/6 4/25/4 3/34/3
f 6/26/6 9/4/9 4/39/4
f 7/10/7 10/66/10 8/64/8
f 8/13/8 9/65/9 5/35/5
f 8/13/8 10/6/10 9/65/9
f 9/4/9 12/5/12 7/59/7
f 10/66/10 7/10/7 11/7/11
f 10/6/10 13/17/13 12/63/12
f 11/61/11 7/59/7 12/5/12
f 11/7/11 14/20/14 10/66/10
f 12/63/12 9/65/9 10/6/10
f 12/5/12 14/54/14 11/61/11
f 13/51/13 10/66/10 14/20/14
f 13/17/13 16/32/16 15/46/15
f 14/54/14 12/5/12 15/27/15
f 14/20/14 16/37/16 13/51/13
f 15/46/15 12/63/12 13/17/13
f 15/27/15 16/41/16 14/54/14
