mtllib page-13-player-buildings.png.mtl
usemtl page-13-player-buildings.png

# 70 vertices
v -183 78 -5
v -170 78 24
v -140 93 -3
v -170 78 -36
v -140 78 37
v -140 78 -49
v -109 78 24
v -140 0 37
v -109 0 24
v -109 78 -36
v -97 78 -5
v -97 0 -5
v -109 0 -36
v -140 0 -49
v -170 0 -36
v -73 74 -178
v -73 1 -178
v -73 1 -129
v -73 74 -129
v -73 1 50
v -73 74 50
v -4 74 -178
v -4 74 -129
v 64 74 -178
v 64 74 -129
v -10 95 -129
v -22 108 -129
v -22 108 50
v -10 95 50
v -39 110 -129
v -39 110 50
v -4 74 50
v 13 108 -129
v 1 94 -129
v 1 94 50
v 13 108 50
v 29 110 -129
v 29 110 50
v 59 95 -129
v 59 95 50
v 64 74 50
v 46 108 -129
v 46 108 50
v -67 94 -129
v -67 94 50
v -55 108 -129
v -55 108 50
v -4 1 50
v 64 1 50
v -183 0 -5
v 64 1 -129
v 64 1 -178
v -170 0 24
v -74 78 135
v -87 78 165
v -87 0 165
v -74 0 135
v -87 78 104
v -87 0 104
v -117 78 178
v -116 93 136
v -117 78 91
v -117 0 91
v -148 78 165
v -148 78 104
v -148 0 104
v -161 78 135
v -161 0 135
v -148 0 165
v -117 0 178

# 75 texture coords
vt 0.914062 0.570312
vt 0.976562 0.597656
vt 0.914062 0.660156
vt 0.84375 0.59375
vt 0.996094 0.660156
vt 0.816406 0.660156
vt 0.636719 0.269531
vt 0.710938 0.269531
vt 0.710938 0.0703125
vt 0.636719 0.0703125
vt 0.851562 0.722656
vt 0.546875 0.269531
vt 0.546875 0.0703125
vt 0.914062 0.753906
vt 0.367188 0.269531
vt 0.457031 0.269531
vt 0.457031 0.0703125
vt 0.367188 0.0703125
vt 0.976562 0.722656
vt 0.277344 0.269531
vt 0.277344 0.0703125
vt 0.859375 0.390625
vt 0.976562 0.390625
vt 0.976562 0.28125
vt 0.859375 0.28125
vt 0.367188 0
vt 0.4375 0
vt 0.4375 0.0703125
vt 0.507812 0
vt 0.507812 0.0703125
vt 0.296875 0
vt 0.296875 0.0703125
vt 0.46875 0.96875
vt 0.476562 0.933594
vt 0.339844 0.933594
vt 0.347656 0.96875
vt 0.410156 1
vt 0.375 1
vt 0.445312 1
vt 0.46875 0.875
vt 0.476562 0.839844
vt 0.339844 0.839844
vt 0.347656 0.875
vt 0.410156 0.90625
vt 0.375 0.90625
vt 0.445312 0.90625
vt 0.554688 0.199219
vt 0.710938 0.199219
vt 0.695312 0.234375
vt 0.574219 0.234375
vt 0.636719 0.261719
vt 0.597656 0.261719
vt 0.675781 0.261719
vt 0.554688 0.0703125
vt 0.1875 0.269531
vt 0.1875 0.0703125
vt 0.0976562 0.269531
vt 0.0976562 0.0703125
vt 0.992188 0.394531
vt 0.71875 0.394531
vt 0.71875 0.570312
vt 0.992188 0.570312
vt 0 0.269531
vt 0 0.0703125
vt 0.636719 0.472656
vt 0.714844 0.472656
vt 0.714844 0.269531
vt 0.546875 0.472656
vt 0.976562 0.71875
vt 0.457031 0.472656
vt 0.367188 0.472656
vt 0.277344 0.472656
vt 0.1875 0.472656
vt 0.0976562 0.472656
vt 0 0.472656

# 45 vertex normals
vn -0.331869 0.931521 0.148769
vn -0.320794 0.937547 -0.134527
vn -0.150422 0.925675 0.347128
vn -0.133146 0.942265 -0.30726
vn 0.386727 0 0.922194
vn 0.128924 0.942796 -0.307433
vn 0.924017 0 0.382352
vn 0.321642 0.93864 -0.124506
vn 0.386727 0 -0.922194
vn 0.33194 0.933247 0.137354
vn -0.397607 0 -0.917556
vn 0.145675 0.926341 0.347378
vn 0.932568 0 -0.360994
vn -1 0 0
vn 0 1 0
vn 0.734803 0.67828 0
vn 0.116841 0.993151 0
vn 0.961524 0.274721 0
vn -0.759257 0.650791 0
vn -0.970143 0.242536 0
vn -0.124035 0.992278 0
vn 0.972806 0.231621 0
vn 0.707107 0.707107 0
vn -0.957826 0.287348 0
vn 0 -0 -1
vn 0 0 1
vn -0.922194 0 -0.386727
vn 1 0 0
vn -0.912509 0 0.409056
vn -0.397607 0 0.917556
vn 0.917556 0 0.397607
vn 0.922194 0 -0.386727
vn 0.145525 0.930614 0.335827
vn 0.397607 0 -0.917556
vn -0.138459 0.933711 0.330171
vn -0.386727 0 -0.922194
vn -0.310919 0.94145 -0.130386
vn -0.130386 0.94145 -0.310919
vn -0.917556 0 0.397607
vn 0.136927 0.938831 -0.315986
vn -0.386727 0 0.922194
vn 0.330171 0.933711 -0.138459
vn 0.397607 0 0.917556
vn 0.335827 0.930614 0.145525
vn -0.315986 0.938831 0.136927

o 1
f 1/1/1 2/2/1 3/3/1
f 4/4/2 1/1/2 3/3/2
f 2/2/3 5/5/3 3/3/3
f 6/6/4 4/4/4 3/3/4
f 7/7/5 5/8/5 8/9/5
f 7/7/5 8/9/5 9/10/5
f 10/11/6 6/6/6 3/3/6
f 11/12/7 7/7/7 9/10/7
f 11/12/7 9/10/7 12/13/7
f 11/14/8 10/11/8 3/3/8
f 6/15/9 10/16/9 13/17/9
f 6/15/9 13/17/9 14/18/9
f 7/19/10 11/14/10 3/3/10
f 4/20/11 6/15/11 14/18/11
f 4/20/11 14/18/11 15/21/11
f 5/5/12 7/19/12 3/3/12
f 10/16/13 11/12/13 12/13/13
f 10/16/13 12/13/13 13/17/13
f 16/22/14 17/23/14 18/24/14
f 16/22/14 18/24/14 19/25/14
f 18/13/14 20/18/14 21/15/14
f 18/13/14 21/15/14 19/12/14
f 22/22/15 16/23/15 19/24/15
f 22/22/15 19/24/15 23/25/15
f 24/22/15 22/23/15 23/24/15
f 24/22/15 23/24/15 25/25/15
f 26/26/16 27/27/16 28/28/16
f 26/26/16 28/28/16 29/18/16
f 27/27/17 30/29/17 31/30/17
f 27/27/17 31/30/17 28/28/17
f 23/31/18 26/26/18 29/18/18
f 23/31/18 29/18/18 32/32/18
f 33/27/19 34/26/19 35/18/19
f 33/27/19 35/18/19 36/28/19
f 34/26/20 23/31/20 32/32/20
f 34/26/20 32/32/20 35/18/20
f 37/29/21 33/27/21 36/28/21
f 37/29/21 36/28/21 38/30/21
f 25/31/22 39/26/22 40/18/22
f 25/31/22 40/18/22 41/32/22
f 39/26/23 42/27/23 43/28/23
f 39/26/23 43/28/23 40/18/23
f 44/26/24 19/31/24 21/32/24
f 44/26/24 21/32/24 45/18/24
f 42/27/17 37/29/17 38/30/17
f 42/27/17 38/30/17 43/28/17
f 46/27/19 44/26/19 45/18/19
f 46/27/19 45/18/19 47/28/19
f 26/33/25 23/34/25 19/35/25
f 26/33/25 19/35/25 44/36/25
f 30/37/25 26/33/25 44/36/25
f 30/37/25 44/36/25 46/38/25
f 27/39/25 26/33/25 30/37/25
f 39/40/25 25/41/25 23/42/25
f 39/40/25 23/42/25 34/43/25
f 37/44/25 39/40/25 34/43/25
f 37/44/25 34/43/25 33/45/25
f 42/46/25 39/40/25 37/44/25
f 30/29/21 46/27/21 47/28/21
f 30/29/21 47/28/21 31/30/21
f 21/47/26 32/48/26 29/49/26
f 21/47/26 29/49/26 45/50/26
f 45/50/26 29/49/26 31/51/26
f 45/50/26 31/51/26 47/52/26
f 29/49/26 28/53/26 31/51/26
f 20/54/26 48/9/26 32/48/26
f 20/54/26 32/48/26 21/47/26
f 32/47/26 41/48/26 40/49/26
f 32/47/26 40/49/26 35/50/26
f 35/50/26 40/49/26 38/51/26
f 35/50/26 38/51/26 36/52/26
f 40/49/26 43/53/26 38/51/26
f 48/54/26 49/9/26 41/48/26
f 48/54/26 41/48/26 32/47/26
f 1/55/27 4/20/27 15/21/27
f 1/55/27 15/21/27 50/56/27
f 49/18/28 51/13/28 25/12/28
f 49/18/28 25/12/28 41/15/28
f 52/23/28 24/22/28 25/25/28
f 52/23/28 25/25/28 51/24/28
f 2/57/29 1/55/29 50/56/29
f 2/57/29 50/56/29 53/58/29
f 52/59/25 17/60/25 16/61/25
f 52/59/25 16/61/25 24/62/25
f 5/63/30 2/57/30 53/58/30
f 5/63/30 53/58/30 8/64/30
f 54/65/31 55/66/31 56/67/31
f 54/65/31 56/67/31 57/7/31
f 58/68/32 54/65/32 57/7/32
f 58/68/32 57/7/32 59/12/32
f 60/5/33 55/69/33 61/3/33
f 62/70/34 58/68/34 59/12/34
f 62/70/34 59/12/34 63/16/34
f 64/2/35 60/5/35 61/3/35
f 65/71/36 62/70/36 63/16/36
f 65/71/36 63/16/36 66/15/36
f 65/4/37 67/1/37 61/3/37
f 67/72/27 65/71/27 66/15/27
f 67/72/27 66/15/27 68/20/27
f 62/6/38 65/4/38 61/3/38
f 64/73/39 67/72/39 68/20/39
f 64/73/39 68/20/39 69/55/39
f 58/11/40 62/6/40 61/3/40
f 60/74/41 64/73/41 69/55/41
f 60/74/41 69/55/41 70/57/41
f 54/14/42 58/11/42 61/3/42
f 55/75/43 60/74/43 70/57/43
f 55/75/43 70/57/43 56/63/43
f 55/69/44 54/14/44 61/3/44
f 67/1/45 64/2/45 61/3/45
